<svg xmlns="http://www.w3.org/2000/svg" viewBox="0 0 81.75 81.75"><defs><style>.cls-1{fill:#f9f9f9;}</style></defs><title>Asset 1</title><g id="Layer_2" data-name="Layer 2"><g id="Layer_1-2" data-name="Layer 1"><path class="cls-1" d="M40.88,5A35.87,35.87,0,1,1,5,40.87,35.92,35.92,0,0,1,40.88,5m0-5A40.87,40.87,0,1,0,81.75,40.87,40.87,40.87,0,0,0,40.88,0Z"/><path class="cls-1" d="M40.87,8.19c-.84,0-1.67,0-2.5.1a32.68,32.68,0,0,1,0,65.17c.83.06,1.66.1,2.5.1a32.69,32.69,0,1,0,0-65.37Z"/></g></g></svg>