<?xml version="1.0" encoding="utf-8"?>
<!-- Generator: Adobe Illustrator 21.0.0, SVG Export Plug-In . SVG Version: 6.00 Build 0)  -->
<svg version="1.1"
	 id="svg0" inkscape:output_extension="org.inkscape.output.svg.inkscape" inkscape:version="0.46" sodipodi:docname="ambox_delete1.svg" sodipodi:version="0.32" xmlns:cc="http://creativecommons.org/ns#" xmlns:dc="http://purl.org/dc/elements/1.1/" xmlns:inkscape="http://www.inkscape.org/namespaces/inkscape" xmlns:rdf="http://www.w3.org/1999/02/22-rdf-syntax-ns#" xmlns:sodipodi="http://sodipodi.sourceforge.net/DTD/sodipodi-0.dtd" xmlns:svg="http://www.w3.org/2000/svg"
	 xmlns="http://www.w3.org/2000/svg" xmlns:xlink="http://www.w3.org/1999/xlink" x="0px" y="0px" width="40px" height="40px"
	 viewBox="0 0 40 40" enable-background="new 0 0 40 40" xml:space="preserve">
<sodipodi:namedview  bordercolor="#666666" borderopacity="1.0" gridtolerance="10.0" guidetolerance="10.0" id="base" inkscape:current-layer="svg0" inkscape:cx="273.38252" inkscape:cy="330.49409" inkscape:pageopacity="0.0" inkscape:pageshadow="2" inkscape:window-height="749" inkscape:window-width="1024" inkscape:window-x="-4" inkscape:window-y="-4" inkscape:zoom="0.74516129" objecttolerance="10.0" pagecolor="#ffffff" showgrid="false">
	</sodipodi:namedview>
<defs  opacity="0.53">
	
	
		<inkscape:perspective  id="perspective2480" inkscape:persp3d-origin="310 : 206.66667 : 1" inkscape:vp_x="0 : 310 : 1" inkscape:vp_y="0 : 1000 : 0" inkscape:vp_z="620 : 310 : 1" sodipodi:type="inkscape:persp3d">
		</inkscape:perspective>
</defs>
<g>
	<linearGradient id="SVGID_1_" gradientUnits="userSpaceOnUse" x1="20" y1="40" x2="20" y2="-9.094947e-13">
		<stop  offset="0" style="stop-color:#1579FF"/>
		<stop  offset="1" style="stop-color:#00E96A"/>
	</linearGradient>
	<circle opacity="0.53" fill="url(#SVGID_1_)" cx="20" cy="20" r="20"/>
	<circle fill="#FFFFFF" stroke="#469DF5" stroke-width="2" stroke-miterlimit="10" cx="20" cy="20" r="15.486"/>
	<g>
		<linearGradient id="SVGID_2_" gradientUnits="userSpaceOnUse" x1="12.7831" y1="20" x2="27.2169" y2="20">
			<stop  offset="0" style="stop-color:#007EE9"/>
			<stop  offset="1" style="stop-color:#55FFBE"/>
		</linearGradient>
		<path fill="url(#SVGID_2_)" d="M20,9.0909c-3.9794,0-7.2169,3.2375-7.2169,7.2169c0,1.6028,1.0235,4.2158,3.1287,7.9885
			c1.4892,2.6684,2.9538,4.8933,3.0154,4.9867L20,30.9091l1.0728-1.6261c0.0616-0.0934,1.5264-2.3183,3.0153-4.9867
			c2.1054-3.7727,3.1287-6.3857,3.1287-7.9885C27.2169,12.3284,23.9794,9.0909,20,9.0909z M20,20
			c-2.066,0-3.7409-1.6749-3.7409-3.7409S17.934,12.5181,20,12.5181s3.7409,1.6749,3.7409,3.7409S22.066,20,20,20z"/>
	</g>
</g>
</svg>
