<svg width="300" height="300" id="svg0" xmlns="http://www.w3.org/2000/svg" xmlns:xlink="http://www.w3.org/1999/xlink" viewBox="0 0 539 539"><defs><style>.cls-1,.cls-2{opacity:0.53;}.cls-2{fill:url(#linear-gradient);}.cls-3{fill:#fff;stroke:#469df5;stroke-miterlimit:10;stroke-width:5px;}.cls-4{fill:url(#linear-gradient-2);}</style><linearGradient id="linear-gradient" x1="269.5" y1="539" x2="269.5" gradientUnits="userSpaceOnUse"><stop offset="0" stop-color="#1579ff"/><stop offset="1" stop-color="#00e96a"/></linearGradient><linearGradient id="linear-gradient-2" x1="212.75" y1="310" x2="407.25" y2="310" gradientUnits="userSpaceOnUse"><stop offset="0" stop-color="#007ee9"/><stop offset="1" stop-color="#55ffbe"/></linearGradient></defs><title>marker_icon</title><circle class="cls-2" cx="269.5" cy="269.5" r="269.5"/><circle class="cls-3" cx="269.5" cy="269.5" r="208.67"/><path class="cls-4" d="M310,163a97.36,97.36,0,0,0-97.25,97.25c0,21.6,13.79,56.81,42.16,107.64,20.07,36,39.8,65.94,40.63,67.2L310,457l14.46-21.91c.83-1.26,20.57-31.24,40.63-67.2,28.37-50.84,42.16-86,42.16-107.64A97.36,97.36,0,0,0,310,163Zm0,147a50.41,50.41,0,1,1,50.41-50.41A50.41,50.41,0,0,1,310,310Z" transform="translate(-40.5 -40.5)"/></svg>